<svg xmlns="http://www.w3.org/2000/svg" xmlns:xlink="http://www.w3.org/1999/xlink" width="1024" zoomAndPan="magnify" viewBox="0 0 768 767.999994" height="1024" preserveAspectRatio="xMidYMid meet" version="1.0"><defs><clipPath id="1f18ea3cd7"><path d="M 12.664062 25.324219 L 756 25.324219 L 756 768 L 12.664062 768 Z M 12.664062 25.324219 " clip-rule="nonzero"/></clipPath><clipPath id="ba06635e83"><path d="M 502.476562 0 L 754.507812 0 L 754.507812 252.03125 L 502.476562 252.03125 Z M 502.476562 0 " clip-rule="nonzero"/></clipPath><clipPath id="6e78ca5687"><path d="M 502.476562 515.136719 L 754.507812 515.136719 L 754.507812 767.167969 L 502.476562 767.167969 Z M 502.476562 515.136719 " clip-rule="nonzero"/></clipPath></defs><g clip-path="url(#1f18ea3cd7)"><path fill="#0abab5" d="M 383.996094 25.324219 C 383.996094 230.417969 217.730469 396.65625 12.664062 396.65625 C 217.730469 396.65625 383.996094 562.921875 383.996094 767.988281 C 383.996094 562.921875 550.257812 396.65625 755.328125 396.65625 C 550.257812 396.65625 383.996094 230.417969 383.996094 25.324219 " fill-opacity="1" fill-rule="nonzero"/></g><g clip-path="url(#ba06635e83)"><path fill="#0abab5" d="M 755.308594 126.414062 C 660.496094 143.871094 646.34375 158.019531 628.890625 252.832031 C 611.4375 158.019531 597.289062 143.871094 502.476562 126.414062 C 597.289062 108.960938 611.4375 94.8125 628.890625 0 C 646.34375 94.8125 660.496094 108.960938 755.308594 126.414062 Z M 755.308594 126.414062 " fill-opacity="1" fill-rule="nonzero"/></g><g clip-path="url(#6e78ca5687)"><path fill="#0abab5" d="M 755.308594 641.554688 C 660.496094 659.007812 646.34375 673.15625 628.890625 767.96875 C 611.4375 673.15625 597.289062 659.007812 502.476562 641.554688 C 597.289062 624.097656 611.4375 609.949219 628.890625 515.136719 C 646.34375 609.949219 660.496094 624.097656 755.308594 641.554688 Z M 755.308594 641.554688 " fill-opacity="1" fill-rule="nonzero"/></g></svg>