<svg xmlns="http://www.w3.org/2000/svg" xmlns:xlink="http://www.w3.org/1999/xlink" width="1024" zoomAndPan="magnify" viewBox="0 0 768 767.999994" height="1024" preserveAspectRatio="xMidYMid meet" version="1.0"><defs><clipPath id="d224680658"><path d="M 0 53.761719 L 768 53.761719 L 768 712 L 0 712 Z M 0 53.761719 " clip-rule="nonzero"/></clipPath></defs><g clip-path="url(#d224680658)"><path fill="#0abab5" d="M 617.28125 562.835938 L 483.65625 703.65625 C 474.207031 713.554688 459.359375 714.003906 449.460938 704.558594 C 446.3125 701.855469 444.0625 698.257812 443.164062 694.207031 C 440.914062 686.109375 442.714844 677.113281 448.5625 670.8125 C 442.714844 677.113281 440.914062 686.109375 443.164062 694.207031 C 440.914062 686.109375 442.714844 677.113281 448.5625 670.8125 C 442.714844 677.113281 440.914062 686.109375 443.164062 694.207031 C 440.914062 686.109375 442.714844 677.113281 448.5625 670.8125 Z M 443.164062 694.207031 L 393.671875 562.835938 L 90.433594 562.835938 C 65.6875 562.835938 43.191406 552.9375 26.542969 536.289062 C 10.347656 520.09375 0 497.597656 0 472.402344 L 0 144.417969 C 0 119.671875 10.347656 97.175781 26.542969 80.527344 C 43.191406 64.332031 65.6875 53.984375 90.433594 53.984375 L 677.566406 53.984375 C 702.761719 53.984375 725.257812 64.332031 741.457031 80.527344 C 757.652344 97.175781 768 119.671875 768 144.417969 L 768 472.402344 C 768 497.597656 757.652344 520.09375 741.457031 536.289062 C 725.257812 552.9375 702.761719 562.835938 677.566406 562.835938 L 617.28125 562.835938 Z M 136.773438 395.015625 C 123.277344 395.015625 112.476562 405.816406 112.476562 418.863281 C 112.476562 432.359375 123.277344 443.15625 136.773438 443.15625 L 628.527344 443.15625 C 641.574219 443.15625 652.371094 432.359375 652.371094 418.863281 C 652.371094 405.816406 641.574219 395.015625 628.527344 395.015625 Z M 136.773438 291.539062 C 123.277344 291.539062 112.476562 302.335938 112.476562 315.832031 C 112.476562 328.878906 123.277344 339.679688 136.773438 339.679688 L 631.675781 339.679688 C 644.722656 339.679688 655.523438 328.878906 655.523438 315.832031 C 655.523438 302.335938 644.722656 291.539062 631.675781 291.539062 Z M 136.773438 188.058594 C 123.277344 188.058594 112.476562 198.855469 112.476562 212.351562 C 112.476562 225.398438 123.277344 236.199219 136.773438 236.199219 L 483.207031 236.199219 C 496.253906 236.199219 507.050781 225.398438 507.050781 212.351562 C 507.050781 198.855469 496.253906 188.058594 483.207031 188.058594 Z M 136.773438 188.058594 " fill-opacity="1" fill-rule="nonzero"/></g></svg>