<?xml version="1.0" encoding="UTF-8" standalone="no"?> <svg xmlns:dc="http://purl.org/dc/elements/1.1/" xmlns:cc="http://creativecommons.org/ns#" xmlns:rdf="http://www.w3.org/1999/02/22-rdf-syntax-ns#" xmlns:svg="http://www.w3.org/2000/svg" xmlns="http://www.w3.org/2000/svg" xmlns:sodipodi="http://sodipodi.sourceforge.net/DTD/sodipodi-0.dtd" xmlns:inkscape="http://www.inkscape.org/namespaces/inkscape" id="svg2" xml:space="preserve" width="666.66669" height="173.33333" viewBox="0 0 666.66669 173.33333" sodipodi:docname="bepaid-logo-color.ai"> <metadata id="metadata8"></metadata> <defs id="defs6"> <clipPath clipPathUnits="userSpaceOnUse" id="clipPath18"> <path d="M 0,130 H 500 V 0 H 0 Z" id="path16"></path> </clipPath> </defs> <g id="g10" inkscape:groupmode="layer" inkscape:label="bepaid-logo-color" transform="matrix(1.3333333,0,0,-1.3333333,0,173.33333)"> <g id="g12"> <g id="g14" clip-path="url(#clipPath18)"> <g id="g20" transform="translate(28.3457,42.5264)"> <path d="m 0,0 c 0,-1.598 0.158,-3.205 0.481,-4.648 2.082,-7.852 8.973,-13.775 17.464,-13.775 12.344,0 19.873,9.933 19.873,25.639 0,13.775 -6.571,24.994 -19.708,24.994 C 10.1,32.21 2.883,26.443 0.64,17.787 0.323,16.346 0,14.581 0,12.66 Z m -20.354,-32.208 c 0.323,5.288 0.646,13.941 0.646,21.952 V 81.567 H 0 V 35.093 h 0.323 c 4.806,7.537 13.298,12.502 24.995,12.502 19.069,0 32.689,-15.865 32.533,-39.583 0,-28.041 -17.789,-41.984 -35.416,-41.984 -10.1,0 -19.07,3.844 -24.679,13.462 h -0.322 l -0.963,-11.698 z" style="fill:#f27421;fill-opacity:1;fill-rule:nonzero;stroke:none" id="path22"></path> </g> <g id="g24" transform="translate(156.2759,57.5884)"> <path d="M 0,0 C 0.164,7.214 -3.042,19.068 -16.187,19.068 -28.364,19.068 -33.493,8.018 -34.289,0 Z m -34.289,-13.777 c 0.481,-14.1 11.533,-20.189 24.033,-20.189 9.137,0 15.706,1.277 21.636,3.521 l 2.886,-13.619 c -6.737,-2.725 -16.031,-4.806 -27.247,-4.806 -25.318,0 -40.22,15.541 -40.22,39.418 0,21.637 13.137,41.985 38.14,41.985 25.317,0 33.65,-20.835 33.65,-37.977 0,-3.685 -0.323,-6.57 -0.638,-8.333 z" style="fill:#f27421;fill-opacity:1;fill-rule:nonzero;stroke:none" id="path26"></path> </g> <g id="g28" transform="translate(216.7275,66.5669)"> <path d="m 0,0 c 2.403,-0.646 5.608,-0.804 9.618,-0.804 14.745,0 23.716,7.209 23.716,19.872 0,12.015 -8.335,18.428 -21.954,18.428 -5.449,0 -9.294,-0.48 -11.38,-0.961 z m -19.552,50.318 c 7.058,1.277 16.833,2.238 30.131,2.238 14.42,0 24.998,-3.04 31.884,-8.815 6.413,-5.285 10.58,-13.779 10.58,-23.874 0,-10.256 -3.207,-18.748 -9.295,-24.514 -7.852,-7.853 -20.189,-11.538 -34.13,-11.538 -3.687,0 -7.052,0.157 -9.618,0.636 v -40.699 h -19.552 z" style="fill:#231f20;fill-opacity:1;fill-rule:nonzero;stroke:none" id="path30"></path> </g> <g id="g32" transform="translate(329.5947,48.4595)"> <path d="m 0,0 c -13.94,0.316 -27.239,-2.725 -27.239,-14.582 0,-7.694 4.97,-11.224 11.217,-11.224 7.853,0 13.62,5.13 15.384,10.743 0.48,1.442 0.638,3.042 0.638,4.325 z m 2.569,-38.141 -1.284,8.656 H 0.802 c -4.804,-6.089 -12.979,-10.42 -23.071,-10.42 -15.705,0 -24.52,11.38 -24.52,23.237 0,19.71 17.463,29.648 46.31,29.484 V 14.1 c 0,5.127 -2.082,13.618 -15.867,13.618 -7.687,0 -15.697,-2.402 -20.99,-5.767 l -3.845,12.817 c 5.768,3.529 15.865,6.894 28.205,6.894 24.997,0 32.211,-15.865 32.211,-32.848 v -28.208 c 0,-7.049 0.317,-13.94 1.119,-18.747 z" style="fill:#231f20;fill-opacity:1;fill-rule:nonzero;stroke:none" id="path34"></path> </g> <path d="m 375.314,88.357 h 19.867 V 10.319 h -19.867 z m 20.992,21.795 c 0,-5.933 -4.331,-10.579 -11.217,-10.579 -6.568,0 -10.9,4.646 -10.9,10.579 0,6.087 4.489,10.735 11.059,10.735 6.727,0 10.894,-4.648 11.058,-10.735" style="fill:#231f20;fill-opacity:1;fill-rule:nonzero;stroke:none" id="path36"></path> <g id="g38" transform="translate(474.21,55.8315)"> <path d="m 0,0 c 0,1.6 -0.164,3.521 -0.479,5.127 -1.766,7.69 -8.012,13.942 -16.991,13.942 -12.658,0 -19.708,-11.222 -19.708,-25.803 0,-14.259 7.05,-24.678 19.55,-24.678 8.012,0 15.063,5.451 16.982,13.942 0.482,1.762 0.646,3.685 0.646,5.772 z m 19.71,68.262 v -91.824 c 0,-8.01 0.321,-16.664 0.637,-21.951 H 2.725 l -0.804,12.335 h -0.32 c -4.648,-8.65 -14.1,-14.099 -25.477,-14.099 -18.587,0 -33.333,15.865 -33.333,39.905 -0.158,26.118 16.186,41.662 34.935,41.662 10.735,0 18.428,-4.486 21.952,-10.257 H 0 v 44.229 z" style="fill:#231f20;fill-opacity:1;fill-rule:nonzero;stroke:none" id="path40"></path> </g> </g> </g> </g> </svg> 