<svg xmlns="http://www.w3.org/2000/svg" xmlns:xlink="http://www.w3.org/1999/xlink" width="1024" zoomAndPan="magnify" viewBox="0 0 768 767.999994" height="1024" preserveAspectRatio="xMidYMid meet" version="1.0"><defs><clipPath id="4d127a712b"><path d="M 0 77 L 768 77 L 768 543.300781 L 0 543.300781 Z M 0 77 " clip-rule="nonzero"/></clipPath></defs><g clip-path="url(#4d127a712b)"><path fill="#0abab5" d="M 732.792969 243.5625 C 713.300781 243.5625 697.503906 259.363281 697.503906 278.851562 C 697.503906 287.46875 700.597656 295.351562 705.722656 301.480469 C 676.441406 325.621094 636.664062 350.589844 605.101562 341.644531 C 570.585938 331.875 569.515625 281.527344 574.097656 243.25 C 574.101562 243.242188 574.101562 243.238281 574.101562 243.230469 C 575.609375 243.425781 577.140625 243.5625 578.703125 243.5625 C 598.191406 243.5625 613.992188 227.761719 613.992188 208.273438 C 613.992188 188.78125 598.191406 172.980469 578.703125 172.980469 C 559.210938 172.980469 543.410156 188.78125 543.410156 208.273438 C 543.410156 219.457031 548.628906 229.410156 556.75 235.875 C 556.746094 235.875 556.746094 235.878906 556.742188 235.882812 C 535.046875 264.726562 503.703125 299.632812 479.027344 299.632812 C 449.503906 299.632812 414.160156 202.9375 395.734375 145.34375 C 395.730469 145.328125 395.726562 145.316406 395.722656 145.304688 C 408.984375 140.226562 418.414062 127.414062 418.414062 112.371094 C 418.414062 92.878906 402.613281 77.078125 383.125 77.078125 C 363.632812 77.078125 347.832031 92.878906 347.832031 112.371094 C 347.832031 127.417969 357.269531 140.234375 370.539062 145.308594 C 370.535156 145.320312 370.53125 145.332031 370.527344 145.34375 C 352.078125 202.9375 316.734375 299.632812 287.210938 299.632812 C 262.800781 299.632812 231.84375 265.429688 210.199219 236.777344 C 210.195312 236.773438 210.195312 236.773438 210.191406 236.769531 C 218.984375 230.351562 224.722656 219.992188 224.722656 208.273438 C 224.722656 188.78125 208.921875 172.980469 189.433594 172.980469 C 169.941406 172.980469 154.140625 188.78125 154.140625 208.273438 C 154.140625 227.761719 169.941406 243.5625 189.433594 243.5625 C 190.363281 243.5625 191.273438 243.496094 192.183594 243.425781 C 192.1875 243.429688 192.1875 243.4375 192.1875 243.445312 C 196.722656 281.695312 195.628906 331.875 161.160156 341.644531 C 129.984375 350.46875 90.789062 326.226562 61.628906 302.398438 C 61.617188 302.390625 61.609375 302.382812 61.597656 302.375 C 67.199219 296.128906 70.632812 287.902344 70.632812 278.851562 C 70.632812 259.363281 54.832031 243.5625 35.34375 243.5625 C 15.851562 243.5625 0.0507812 259.363281 0.0507812 278.851562 C 0.0507812 298.34375 15.851562 314.144531 35.34375 314.144531 C 37.15625 314.144531 38.925781 313.964844 40.667969 313.699219 L 40.683594 313.742188 L 134.203125 543.15625 L 632.035156 543.15625 L 725.699219 313.429688 C 727.992188 313.898438 730.363281 314.144531 732.792969 314.144531 C 752.28125 314.144531 768.082031 298.34375 768.082031 278.851562 C 768.082031 259.363281 752.28125 243.5625 732.792969 243.5625 Z M 732.792969 243.5625 " fill-opacity="1" fill-rule="nonzero"/></g></svg>