<svg xmlns="http://www.w3.org/2000/svg" xmlns:xlink="http://www.w3.org/1999/xlink" width="1024" zoomAndPan="magnify" viewBox="0 0 768 767.999994" height="1024" preserveAspectRatio="xMidYMid meet" version="1.0"><defs><clipPath id="25971639b2"><path d="M 12.664062 25.324219 L 756.0625 25.324219 L 756.0625 768 L 12.664062 768 Z M 12.664062 25.324219 " clip-rule="nonzero"/></clipPath><clipPath id="44d6012e20"><path d="M 502.476562 0 L 754.507812 0 L 754.507812 252.03125 L 502.476562 252.03125 Z M 502.476562 0 " clip-rule="nonzero"/></clipPath><clipPath id="4e65788618"><path d="M 502.476562 515.136719 L 754.507812 515.136719 L 754.507812 767.167969 L 502.476562 767.167969 Z M 502.476562 515.136719 " clip-rule="nonzero"/></clipPath></defs><g clip-path="url(#25971639b2)"><path fill="#000000" d="M 384.363281 25.324219 C 384.363281 230.621094 217.933594 397.023438 12.664062 397.023438 C 217.933594 397.023438 384.363281 563.453125 384.363281 768.726562 C 384.363281 563.453125 550.792969 397.023438 756.0625 397.023438 C 550.792969 397.023438 384.363281 230.621094 384.363281 25.324219 " fill-opacity="1" fill-rule="nonzero"/></g><g clip-path="url(#44d6012e20)"><path fill="#000000" d="M 754.484375 126.003906 C 659.980469 143.402344 645.878906 157.507812 628.480469 252.011719 C 611.082031 157.507812 596.980469 143.402344 502.476562 126.003906 C 596.980469 108.609375 611.082031 94.503906 628.480469 0 C 645.878906 94.503906 659.980469 108.609375 754.484375 126.003906 Z M 754.484375 126.003906 " fill-opacity="1" fill-rule="nonzero"/></g><g clip-path="url(#4e65788618)"><path fill="#000000" d="M 754.484375 641.140625 C 659.980469 658.539062 645.878906 672.644531 628.480469 767.148438 C 611.082031 672.644531 596.980469 658.539062 502.476562 641.140625 C 596.980469 623.746094 611.082031 609.640625 628.480469 515.136719 C 645.878906 609.640625 659.980469 623.746094 754.484375 641.140625 Z M 754.484375 641.140625 " fill-opacity="1" fill-rule="nonzero"/></g></svg>